G04*
G04 #@! TF.GenerationSoftware,Altium Limited,Altium Designer,20.0.2 (26)*
G04*
G04 Layer_Color=65535*
%FSLAX25Y25*%
%MOIN*%
G70*
G01*
G75*
%ADD10C,0.00984*%
%ADD11C,0.00787*%
%ADD12C,0.01000*%
D10*
X342992Y380138D02*
G03*
X342992Y380138I-492J0D01*
G01*
X420492Y334941D02*
G03*
X420492Y334941I-492J0D01*
G01*
D11*
X256506Y407500D02*
G03*
X256506Y407500I-11506J0D01*
G01*
X349882Y367244D02*
Y379449D01*
X345945Y367244D02*
Y379449D01*
Y367244D02*
X349882D01*
X345945Y379449D02*
X349882D01*
X408583Y357500D02*
X431417D01*
Y337500D02*
Y357500D01*
X408583Y337500D02*
Y357500D01*
Y337500D02*
X431417D01*
X293346Y404744D02*
X294331D01*
X293346Y410256D02*
X294331D01*
X339350Y416457D02*
X345650D01*
X339350Y423543D02*
X345650D01*
X260858Y363938D02*
Y370828D01*
X254154Y363917D02*
Y370807D01*
X228000Y405000D02*
Y410000D01*
X225500Y407500D02*
X230500D01*
X414488Y382676D02*
Y393897D01*
Y402952D02*
Y414172D01*
Y382676D02*
X416457D01*
X423937D02*
X425905D01*
X423937Y414172D02*
X425905D01*
X414488D02*
X416457D01*
X425905Y382676D02*
Y414172D01*
X386642Y376534D02*
Y383424D01*
X393346Y376555D02*
Y383445D01*
X353358Y321714D02*
Y328604D01*
X346654Y321693D02*
Y328583D01*
D12*
X322500Y357500D02*
Y363498D01*
X325499D01*
X326499Y362498D01*
Y360499D01*
X325499Y359499D01*
X322500D01*
X324499D02*
X326499Y357500D01*
X328498Y363498D02*
X332497D01*
X330497D01*
Y357500D01*
X334496Y358500D02*
X335496Y357500D01*
X337495D01*
X338495Y358500D01*
Y362498D01*
X337495Y363498D01*
X335496D01*
X334496Y362498D01*
Y361499D01*
X335496Y360499D01*
X338495D01*
X340494Y357500D02*
X342494D01*
X341494D01*
Y363498D01*
X340494Y362498D01*
X345493Y358500D02*
X346492Y357500D01*
X348492D01*
X349491Y358500D01*
Y362498D01*
X348492Y363498D01*
X346492D01*
X345493Y362498D01*
Y361499D01*
X346492Y360499D01*
X349491D01*
X351491Y362498D02*
X352490Y363498D01*
X354490D01*
X355489Y362498D01*
Y361499D01*
X354490Y360499D01*
X353490D01*
X354490D01*
X355489Y359499D01*
Y358500D01*
X354490Y357500D01*
X352490D01*
X351491Y358500D01*
X413099Y366998D02*
X411099D01*
X412099D01*
Y362000D01*
X411099Y361000D01*
X410100D01*
X409100Y362000D01*
X415098Y361000D02*
X417097D01*
X416098D01*
Y366998D01*
X415098Y365998D01*
X426094Y366998D02*
Y361000D01*
X429094D01*
X430093Y362000D01*
Y365998D01*
X429094Y366998D01*
X426094D01*
X436091Y365998D02*
X435092Y366998D01*
X433092D01*
X432093Y365998D01*
Y362000D01*
X433092Y361000D01*
X435092D01*
X436091Y362000D01*
X288389Y414150D02*
Y420148D01*
X291388D01*
X292387Y419148D01*
Y417149D01*
X291388Y416149D01*
X288389D01*
X290388D02*
X292387Y414150D01*
X298385D02*
X294387D01*
X298385Y418149D01*
Y419148D01*
X297386Y420148D01*
X295386D01*
X294387Y419148D01*
X338250Y426950D02*
Y432948D01*
X341249D01*
X342249Y431948D01*
Y429949D01*
X341249Y428949D01*
X338250D01*
X340249D02*
X342249Y426950D01*
X344248D02*
X346247D01*
X345248D01*
Y432948D01*
X344248Y431948D01*
X258749Y380511D02*
X257749Y381510D01*
X255750D01*
X254750Y380511D01*
Y376512D01*
X255750Y375512D01*
X257749D01*
X258749Y376512D01*
X263747Y381510D02*
X261748D01*
X260748Y380511D01*
Y376512D01*
X261748Y375512D01*
X263747D01*
X264747Y376512D01*
Y380511D01*
X263747Y381510D01*
X266746D02*
Y376512D01*
X267746Y375512D01*
X269745D01*
X270745Y376512D01*
Y381510D01*
X272744D02*
X276743D01*
X274744D01*
Y375512D01*
X226150Y428448D02*
Y422450D01*
X229149D01*
X230149Y423450D01*
Y427448D01*
X229149Y428448D01*
X226150D01*
X232148Y422450D02*
X234147D01*
X233148D01*
Y428448D01*
X232148Y427448D01*
X392500Y417500D02*
Y423498D01*
X394499Y421499D01*
X396499Y423498D01*
Y417500D01*
X398498D02*
X400497D01*
X399498D01*
Y421499D01*
X398498D01*
X407495D02*
X404496D01*
X403496Y420499D01*
Y418500D01*
X404496Y417500D01*
X407495D01*
X409494Y421499D02*
Y417500D01*
Y419499D01*
X410494Y420499D01*
X411494Y421499D01*
X412494D01*
X416492Y417500D02*
X418492D01*
X419491Y418500D01*
Y420499D01*
X418492Y421499D01*
X416492D01*
X415493Y420499D01*
Y418500D01*
X416492Y417500D01*
X427489Y423498D02*
Y418500D01*
X428488Y417500D01*
X430488D01*
X431487Y418500D01*
Y423498D01*
X437486Y422498D02*
X436486Y423498D01*
X434486D01*
X433487Y422498D01*
Y421499D01*
X434486Y420499D01*
X436486D01*
X437486Y419499D01*
Y418500D01*
X436486Y417500D01*
X434486D01*
X433487Y418500D01*
X439485Y423498D02*
Y417500D01*
X442484D01*
X443483Y418500D01*
Y419499D01*
X442484Y420499D01*
X439485D01*
X442484D01*
X443483Y421499D01*
Y422498D01*
X442484Y423498D01*
X439485D01*
X391261Y393136D02*
X390261Y394136D01*
X388262D01*
X387262Y393136D01*
Y389138D01*
X388262Y388138D01*
X390261D01*
X391261Y389138D01*
X393260Y394136D02*
Y388138D01*
X396259D01*
X397259Y389138D01*
Y390137D01*
X396259Y391137D01*
X393260D01*
X396259D01*
X397259Y392137D01*
Y393136D01*
X396259Y394136D01*
X393260D01*
X399258Y388138D02*
Y394136D01*
X402257D01*
X403257Y393136D01*
Y391137D01*
X402257Y390137D01*
X399258D01*
X351237Y338298D02*
X350237Y339298D01*
X348237D01*
X347238Y338298D01*
Y334300D01*
X348237Y333300D01*
X350237D01*
X351237Y334300D01*
X353236Y339298D02*
X355235D01*
X354236D01*
Y333300D01*
X353236D01*
X355235D01*
X358234D02*
Y339298D01*
X362233Y333300D01*
Y339298D01*
M02*
