G04*
G04 #@! TF.GenerationSoftware,Altium Limited,Altium Designer,20.0.2 (26)*
G04*
G04 Layer_Physical_Order=1*
G04 Layer_Color=255*
%FSLAX25Y25*%
%MOIN*%
G70*
G01*
G75*
%ADD12C,0.01000*%
%ADD13R,0.03740X0.02559*%
%ADD14R,0.03740X0.01459*%
%ADD15R,0.03740X0.01459*%
%ADD16R,0.03740X0.05709*%
%ADD17R,0.02953X0.03937*%
%ADD18R,0.03543X0.02953*%
%ADD28R,0.06693X0.06693*%
%ADD29C,0.06693*%
%ADD30C,0.06102*%
%ADD31R,0.06102X0.06102*%
%ADD32C,0.02801*%
%ADD33O,0.05006X0.02647*%
G36*
X450000Y312500D02*
X220000D01*
Y440000D01*
X450000D01*
Y312500D01*
D02*
G37*
%LPC*%
G36*
X421179Y414869D02*
X418820D01*
X417914Y414688D01*
X417145Y414175D01*
X416632Y413407D01*
X416452Y412500D01*
X416632Y411593D01*
X417145Y410825D01*
X417914Y410312D01*
X418820Y410131D01*
X421179D01*
X422086Y410312D01*
X422855Y410825D01*
X423368Y411593D01*
X423548Y412500D01*
X423368Y413407D01*
X422855Y414175D01*
X422086Y414688D01*
X421179Y414869D01*
D02*
G37*
G36*
X347000Y426029D02*
X247800D01*
X247215Y425913D01*
X246719Y425581D01*
X234319Y413181D01*
X233987Y412685D01*
X233871Y412100D01*
Y381000D01*
X233987Y380415D01*
X234319Y379919D01*
X250319Y363919D01*
X250815Y363587D01*
X251400Y363471D01*
X254728D01*
Y362524D01*
X260272D01*
Y367248D01*
Y372201D01*
X259029D01*
Y390000D01*
X258913Y390585D01*
X258581Y391081D01*
X249454Y400209D01*
X249646Y400671D01*
X288000D01*
X288084Y400687D01*
X288471Y400370D01*
Y371000D01*
X288587Y370415D01*
X288919Y369919D01*
X294919Y363919D01*
X295415Y363587D01*
X296000Y363471D01*
X344367D01*
X348471Y359366D01*
Y329976D01*
X347228D01*
Y328788D01*
X346919Y328581D01*
X345619Y327281D01*
X345287Y326785D01*
X345171Y326200D01*
Y320000D01*
X345287Y319415D01*
X345619Y318919D01*
X347819Y316719D01*
X348315Y316387D01*
X348900Y316271D01*
X352000D01*
X352585Y316387D01*
X353081Y316719D01*
X391081Y354719D01*
X391413Y355215D01*
X391529Y355800D01*
Y375161D01*
X392772D01*
Y376108D01*
X405197D01*
X405782Y376225D01*
X406278Y376556D01*
X413109Y383387D01*
X413571Y383195D01*
Y357400D01*
X413687Y356815D01*
X414019Y356319D01*
X416040Y354297D01*
X415765Y353635D01*
X415616Y352500D01*
X415765Y351365D01*
X416203Y350308D01*
X416900Y349400D01*
X417808Y348703D01*
X418865Y348265D01*
X420000Y348116D01*
X421135Y348265D01*
X422192Y348703D01*
X422871Y349224D01*
X423371Y348977D01*
Y348033D01*
X422184Y346847D01*
X415654D01*
Y338154D01*
X424346D01*
Y344684D01*
X425981Y346319D01*
X426313Y346815D01*
X426429Y347400D01*
Y406000D01*
X426313Y406585D01*
X425981Y407081D01*
X423881Y409181D01*
X423385Y409513D01*
X422800Y409629D01*
X387600D01*
X387015Y409513D01*
X386519Y409181D01*
X356575Y379238D01*
X356197Y378973D01*
Y378973D01*
X356197Y378973D01*
X352529D01*
Y420500D01*
X352413Y421085D01*
X352081Y421582D01*
X348081Y425581D01*
X347585Y425913D01*
X347000Y426029D01*
D02*
G37*
G36*
X339469Y335498D02*
X240500D01*
Y323501D01*
X339469D01*
Y335498D01*
D02*
G37*
%LPD*%
G36*
X337071Y422968D02*
Y418729D01*
X259700D01*
X259115Y418613D01*
X258619Y418281D01*
X251571Y411234D01*
X251058Y411447D01*
X250000Y411586D01*
X248942Y411447D01*
X247957Y411039D01*
X247111Y410389D01*
X246461Y409543D01*
X246053Y408558D01*
X245914Y407500D01*
X246053Y406442D01*
X246461Y405457D01*
X247111Y404611D01*
X247607Y404229D01*
X247438Y403729D01*
X245934D01*
X244051Y405612D01*
Y411551D01*
X237667D01*
X237476Y412013D01*
X248433Y422971D01*
X336572D01*
X337071Y422968D01*
D02*
G37*
G36*
X414969Y402371D02*
X414668Y401921D01*
X414482Y400984D01*
X414668Y400048D01*
X415199Y399254D01*
X415993Y398723D01*
X416209Y398680D01*
Y398170D01*
X415993Y398127D01*
X415199Y397597D01*
X414668Y396803D01*
X414482Y395866D01*
X414668Y394930D01*
X415199Y394136D01*
X415993Y393605D01*
X416929Y393419D01*
X417866Y393605D01*
X417876Y393612D01*
X418343Y393353D01*
X418375Y392979D01*
X414019Y388622D01*
X404564Y379167D01*
X392772D01*
Y384839D01*
X387228D01*
Y383892D01*
X383562D01*
X382977Y383775D01*
X382481Y383444D01*
X370567Y371529D01*
X356197D01*
Y372280D01*
X356659Y372371D01*
X356700D01*
X357285Y372487D01*
X357781Y372819D01*
X387833Y402871D01*
X414701D01*
X414969Y402371D01*
D02*
G37*
G36*
X349471Y419867D02*
Y376693D01*
X349587Y376108D01*
X349706Y375929D01*
X349439Y375429D01*
X348733D01*
X346388Y377774D01*
X346330Y377814D01*
X346281Y378311D01*
X346534Y378564D01*
X346866Y379061D01*
X346982Y379646D01*
Y417031D01*
X347929D01*
Y420755D01*
X348391Y420946D01*
X349471Y419867D01*
D02*
G37*
G36*
X342976Y422915D02*
Y417031D01*
X343923D01*
Y380279D01*
X342067Y378423D01*
X339630D01*
Y374963D01*
X339630D01*
Y371529D01*
X325311D01*
X299207Y397634D01*
Y403646D01*
X300547D01*
Y411354D01*
X294807D01*
Y403646D01*
X296148D01*
Y397000D01*
X296264Y396415D01*
X296596Y395919D01*
X323596Y368919D01*
X324092Y368587D01*
X324677Y368471D01*
X339630D01*
Y368270D01*
X345370D01*
Y369714D01*
X345832Y369905D01*
X351771Y363966D01*
Y360950D01*
X351271Y360798D01*
X351081Y361081D01*
X346081Y366081D01*
X345585Y366413D01*
X345000Y366529D01*
X296634D01*
X291529Y371634D01*
Y403646D01*
X292870D01*
Y411354D01*
X287130D01*
Y403729D01*
X252562D01*
X252393Y404229D01*
X252889Y404611D01*
X253539Y405457D01*
X253947Y406442D01*
X254086Y407500D01*
X253947Y408558D01*
X253734Y409071D01*
X260333Y415671D01*
X339547D01*
X340132Y415787D01*
X340629Y416119D01*
X340960Y416615D01*
X341043Y417031D01*
X342024D01*
Y422915D01*
X342500Y422968D01*
X342976Y422915D01*
D02*
G37*
G36*
X244219Y401119D02*
X255971Y389367D01*
Y372201D01*
X254728D01*
Y367248D01*
Y366529D01*
X252033D01*
X236929Y381633D01*
Y403449D01*
X241888D01*
X244219Y401119D01*
D02*
G37*
G36*
X417145Y382675D02*
X417914Y382162D01*
X418820Y381982D01*
X421179D01*
X422086Y382162D01*
X422855Y382675D01*
X422871Y382700D01*
X423371Y382548D01*
Y356023D01*
X422871Y355776D01*
X422192Y356297D01*
X421135Y356735D01*
X420000Y356884D01*
X418865Y356735D01*
X418203Y356460D01*
X416629Y358033D01*
Y382548D01*
X417129Y382700D01*
X417145Y382675D01*
D02*
G37*
G36*
X387228Y375161D02*
X388471D01*
Y356434D01*
X355037Y323000D01*
X354649Y323319D01*
X354713Y323415D01*
X354829Y324000D01*
Y364600D01*
X354713Y365185D01*
X354381Y365681D01*
X352804Y367259D01*
X352996Y367721D01*
X356197D01*
Y368471D01*
X371200D01*
X371785Y368587D01*
X372281Y368919D01*
X384196Y380833D01*
X387228D01*
Y375161D01*
D02*
G37*
D12*
X415100Y387541D02*
X420866Y393307D01*
X405197Y377638D02*
X415100Y387541D01*
X290000Y404200D02*
Y407500D01*
Y371000D02*
Y404200D01*
X245300Y402200D02*
X257500Y390000D01*
X351000Y376693D02*
Y420500D01*
X420300Y403543D02*
Y404400D01*
X415100Y357400D02*
Y387541D01*
Y357400D02*
X420000Y352500D01*
X257500Y369724D02*
Y390000D01*
X290000Y371000D02*
X296000Y365000D01*
X345000D01*
X350000Y360000D01*
Y327500D02*
Y360000D01*
X240000Y407500D02*
X245300Y402200D01*
X288000D01*
X290000Y404200D01*
X350000Y322776D02*
X352076D01*
X353300Y324000D01*
Y364600D01*
X344554Y373346D02*
X353300Y364600D01*
X342500Y373346D02*
X344554D01*
X251400Y365000D02*
X257500D01*
X235400Y381000D02*
X251400Y365000D01*
X235400Y381000D02*
Y412100D01*
X247800Y424500D01*
X347000D01*
X351000Y420500D01*
Y376693D02*
X353327D01*
X250000Y407500D02*
X259700Y417200D01*
X339547D01*
Y420000D01*
X345453Y379646D02*
Y420000D01*
X342500Y376693D02*
X345453Y379646D01*
X420300Y403543D02*
X420866D01*
X387200Y404400D02*
X420300D01*
X356700Y373900D02*
X387200Y404400D01*
X348100Y373900D02*
X356700D01*
X345307Y376693D02*
X348100Y373900D01*
X342500Y376693D02*
X345307D01*
X324677Y370000D02*
X342500D01*
X297677Y397000D02*
X324677Y370000D01*
X297677Y397000D02*
Y407500D01*
X353327Y376693D02*
X356193D01*
X387600Y408100D01*
X422800D01*
X424900Y406000D01*
Y347400D02*
Y406000D01*
X420000Y342500D02*
X424900Y347400D01*
X390000Y355800D02*
Y377638D01*
X352000Y317800D02*
X390000Y355800D01*
X348900Y317800D02*
X352000D01*
X346700Y320000D02*
X348900Y317800D01*
X346700Y320000D02*
Y326200D01*
X348000Y327500D01*
X350000D01*
X390000Y377638D02*
X405197D01*
X383562Y382362D02*
X390000D01*
X371200Y370000D02*
X383562Y382362D01*
X353327Y370000D02*
X371200D01*
X242500Y333498D02*
Y329499D01*
X244499Y327500D01*
X246499Y329499D01*
Y333498D01*
X249498Y327500D02*
X251497D01*
X252497Y328500D01*
Y330499D01*
X251497Y331499D01*
X249498D01*
X248498Y330499D01*
Y328500D01*
X249498Y327500D01*
X254496D02*
X256495D01*
X255496D01*
Y333498D01*
X254496D01*
X260494Y332498D02*
Y331499D01*
X259494D01*
X261494D01*
X260494D01*
Y328500D01*
X261494Y327500D01*
X265493Y331499D02*
X267492D01*
X268492Y330499D01*
Y327500D01*
X265493D01*
X264493Y328500D01*
X265493Y329499D01*
X268492D01*
X272490Y325501D02*
X273490D01*
X274490Y326500D01*
Y331499D01*
X271491D01*
X270491Y330499D01*
Y328500D01*
X271491Y327500D01*
X274490D01*
X279488D02*
X277489D01*
X276489Y328500D01*
Y330499D01*
X277489Y331499D01*
X279488D01*
X280488Y330499D01*
Y329499D01*
X276489D01*
X288485Y327500D02*
Y333498D01*
X291484D01*
X292484Y332498D01*
Y330499D01*
X291484Y329499D01*
X288485D01*
X290484D02*
X292484Y327500D01*
X297482D02*
X295483D01*
X294483Y328500D01*
Y330499D01*
X295483Y331499D01*
X297482D01*
X298482Y330499D01*
Y329499D01*
X294483D01*
X302481Y325501D02*
X303480D01*
X304480Y326500D01*
Y331499D01*
X301481D01*
X300481Y330499D01*
Y328500D01*
X301481Y327500D01*
X304480D01*
X306479Y331499D02*
Y328500D01*
X307479Y327500D01*
X310478D01*
Y331499D01*
X312477Y327500D02*
X314477D01*
X313477D01*
Y333498D01*
X312477D01*
X318475Y331499D02*
X320475D01*
X321474Y330499D01*
Y327500D01*
X318475D01*
X317476Y328500D01*
X318475Y329499D01*
X321474D01*
X324474Y332498D02*
Y331499D01*
X323474D01*
X325473D01*
X324474D01*
Y328500D01*
X325473Y327500D01*
X329472D02*
X331471D01*
X332471Y328500D01*
Y330499D01*
X331471Y331499D01*
X329472D01*
X328472Y330499D01*
Y328500D01*
X329472Y327500D01*
X334470Y331499D02*
Y327500D01*
Y329499D01*
X335470Y330499D01*
X336470Y331499D01*
X337469D01*
D13*
X353327Y376693D02*
D03*
Y370000D02*
D03*
D14*
X342500D02*
D03*
Y373346D02*
D03*
D15*
Y376693D02*
D03*
D16*
X297677Y407500D02*
D03*
X290000D02*
D03*
D17*
X345453Y420000D02*
D03*
X339547D02*
D03*
D18*
X257500Y369724D02*
D03*
Y365000D02*
D03*
X390000Y377638D02*
D03*
Y382362D02*
D03*
X350000Y327500D02*
D03*
Y322776D02*
D03*
D28*
X420000Y342500D02*
D03*
D29*
Y352500D02*
D03*
D30*
X250000Y407500D02*
D03*
D31*
X240000D02*
D03*
D32*
X420866Y393307D02*
D03*
Y398425D02*
D03*
Y403543D02*
D03*
X416929Y400984D02*
D03*
Y395866D02*
D03*
D33*
X420000Y384350D02*
D03*
Y412500D02*
D03*
M02*
