G04*
G04 #@! TF.GenerationSoftware,Altium Limited,Altium Designer,20.0.2 (26)*
G04*
G04 Layer_Color=16711935*
%FSLAX25Y25*%
%MOIN*%
G70*
G01*
G75*
%ADD11C,0.00787*%
G36*
X297145Y410031D02*
X297176Y410027D01*
X297210Y410023D01*
X297249Y410019D01*
X297291Y410007D01*
X297383Y409984D01*
X297479Y409950D01*
X297529Y409927D01*
X297575Y409900D01*
X297617Y409865D01*
X297659Y409831D01*
X297663Y409827D01*
X297667Y409823D01*
X297678Y409812D01*
X297694Y409796D01*
X297709Y409773D01*
X297728Y409750D01*
X297767Y409693D01*
X297805Y409620D01*
X297840Y409535D01*
X297867Y409439D01*
X297870Y409385D01*
X297874Y409332D01*
Y409324D01*
Y409305D01*
X297870Y409274D01*
X297867Y409236D01*
X297859Y409190D01*
X297848Y409140D01*
X297832Y409086D01*
X297809Y409032D01*
X297805Y409024D01*
X297798Y409005D01*
X297782Y408978D01*
X297759Y408940D01*
X297732Y408894D01*
X297698Y408840D01*
X297652Y408786D01*
X297602Y408725D01*
X297594Y408717D01*
X297575Y408694D01*
X297540Y408660D01*
X297517Y408637D01*
X297490Y408610D01*
X297460Y408579D01*
X297421Y408544D01*
X297383Y408510D01*
X297341Y408468D01*
X297294Y408425D01*
X297241Y408379D01*
X297187Y408333D01*
X297126Y408280D01*
X297122Y408276D01*
X297114Y408268D01*
X297099Y408256D01*
X297079Y408241D01*
X297033Y408203D01*
X296976Y408153D01*
X296918Y408099D01*
X296857Y408045D01*
X296807Y407999D01*
X296788Y407980D01*
X296768Y407961D01*
X296765Y407957D01*
X296757Y407945D01*
X296742Y407930D01*
X296722Y407907D01*
X296680Y407857D01*
X296638Y407796D01*
X297878D01*
Y407500D01*
X296208D01*
Y407504D01*
Y407519D01*
Y407542D01*
X296212Y407569D01*
X296216Y407600D01*
X296219Y407634D01*
X296231Y407673D01*
X296242Y407711D01*
Y407715D01*
X296246Y407719D01*
X296254Y407742D01*
X296269Y407773D01*
X296292Y407819D01*
X296319Y407869D01*
X296358Y407926D01*
X296396Y407984D01*
X296446Y408045D01*
Y408049D01*
X296454Y408053D01*
X296473Y408076D01*
X296503Y408111D01*
X296550Y408157D01*
X296607Y408210D01*
X296676Y408276D01*
X296761Y408349D01*
X296853Y408429D01*
X296857Y408433D01*
X296872Y408445D01*
X296891Y408460D01*
X296918Y408487D01*
X296953Y408514D01*
X296991Y408548D01*
X297076Y408621D01*
X297168Y408709D01*
X297260Y408798D01*
X297306Y408840D01*
X297344Y408882D01*
X297379Y408925D01*
X297410Y408963D01*
Y408967D01*
X297417Y408971D01*
X297425Y408982D01*
X297433Y408998D01*
X297456Y409036D01*
X297483Y409086D01*
X297510Y409143D01*
X297533Y409205D01*
X297548Y409274D01*
X297556Y409339D01*
Y409343D01*
Y409347D01*
X297552Y409370D01*
X297548Y409405D01*
X297540Y409447D01*
X297521Y409497D01*
X297498Y409547D01*
X297467Y409600D01*
X297421Y409650D01*
X297414Y409654D01*
X297398Y409669D01*
X297368Y409689D01*
X297329Y409716D01*
X297279Y409739D01*
X297222Y409758D01*
X297152Y409773D01*
X297076Y409777D01*
X297053D01*
X297037Y409773D01*
X296999Y409769D01*
X296949Y409762D01*
X296891Y409742D01*
X296830Y409720D01*
X296772Y409685D01*
X296719Y409639D01*
X296715Y409631D01*
X296699Y409616D01*
X296676Y409585D01*
X296653Y409543D01*
X296626Y409489D01*
X296607Y409428D01*
X296592Y409355D01*
X296584Y409270D01*
X296265Y409305D01*
Y409309D01*
Y409320D01*
X296269Y409339D01*
X296273Y409362D01*
X296281Y409393D01*
X296285Y409428D01*
X296308Y409504D01*
X296338Y409593D01*
X296381Y409681D01*
X296438Y409769D01*
X296469Y409808D01*
X296507Y409846D01*
X296511Y409850D01*
X296519Y409854D01*
X296530Y409865D01*
X296546Y409877D01*
X296569Y409888D01*
X296596Y409908D01*
X296626Y409923D01*
X296661Y409942D01*
X296699Y409958D01*
X296742Y409977D01*
X296792Y409992D01*
X296841Y410004D01*
X296957Y410027D01*
X297018Y410031D01*
X297083Y410034D01*
X297118D01*
X297145Y410031D01*
D02*
G37*
G36*
X295040Y410019D02*
X295071D01*
X295148Y410015D01*
X295229Y410007D01*
X295313Y409992D01*
X295394Y409977D01*
X295432Y409965D01*
X295467Y409954D01*
X295470D01*
X295474Y409950D01*
X295497Y409942D01*
X295528Y409923D01*
X295567Y409896D01*
X295613Y409865D01*
X295659Y409823D01*
X295705Y409773D01*
X295747Y409712D01*
X295751Y409704D01*
X295762Y409681D01*
X295782Y409647D01*
X295801Y409600D01*
X295820Y409543D01*
X295839Y409478D01*
X295851Y409408D01*
X295854Y409332D01*
Y409328D01*
Y409320D01*
Y409305D01*
X295851Y409286D01*
Y409263D01*
X295847Y409236D01*
X295831Y409174D01*
X295812Y409101D01*
X295782Y409028D01*
X295736Y408952D01*
X295709Y408913D01*
X295678Y408879D01*
X295670Y408871D01*
X295659Y408863D01*
X295647Y408848D01*
X295628Y408836D01*
X295605Y408817D01*
X295578Y408802D01*
X295547Y408782D01*
X295513Y408763D01*
X295470Y408744D01*
X295428Y408725D01*
X295378Y408706D01*
X295328Y408686D01*
X295271Y408671D01*
X295209Y408660D01*
X295144Y408648D01*
X295152Y408644D01*
X295167Y408637D01*
X295190Y408625D01*
X295217Y408610D01*
X295282Y408567D01*
X295317Y408544D01*
X295344Y408521D01*
X295352Y408514D01*
X295371Y408498D01*
X295398Y408468D01*
X295432Y408429D01*
X295474Y408379D01*
X295520Y408322D01*
X295570Y408256D01*
X295620Y408183D01*
X296058Y407500D01*
X295639D01*
X295305Y408022D01*
Y408026D01*
X295298Y408034D01*
X295290Y408045D01*
X295282Y408061D01*
X295255Y408099D01*
X295221Y408149D01*
X295182Y408207D01*
X295140Y408264D01*
X295102Y408318D01*
X295063Y408368D01*
X295060Y408372D01*
X295048Y408387D01*
X295029Y408410D01*
X295010Y408437D01*
X294952Y408491D01*
X294925Y408518D01*
X294895Y408537D01*
X294891Y408541D01*
X294883Y408544D01*
X294868Y408552D01*
X294848Y408564D01*
X294802Y408587D01*
X294745Y408606D01*
X294741D01*
X294733Y408610D01*
X294718D01*
X294699Y408613D01*
X294672Y408617D01*
X294641D01*
X294603Y408621D01*
X294173D01*
Y407500D01*
X293839D01*
Y410023D01*
X295010D01*
X295040Y410019D01*
D02*
G37*
G36*
X346079Y420000D02*
X345768D01*
Y421974D01*
X345764Y421970D01*
X345749Y421954D01*
X345722Y421935D01*
X345687Y421908D01*
X345645Y421874D01*
X345595Y421839D01*
X345537Y421797D01*
X345472Y421759D01*
X345468D01*
X345464Y421755D01*
X345441Y421739D01*
X345407Y421720D01*
X345365Y421697D01*
X345315Y421670D01*
X345261Y421647D01*
X345203Y421620D01*
X345149Y421597D01*
Y421901D01*
X345153D01*
X345161Y421905D01*
X345176Y421912D01*
X345192Y421924D01*
X345215Y421935D01*
X345242Y421947D01*
X345303Y421981D01*
X345372Y422024D01*
X345449Y422074D01*
X345526Y422131D01*
X345599Y422193D01*
X345603Y422196D01*
X345606Y422200D01*
X345630Y422223D01*
X345664Y422258D01*
X345706Y422300D01*
X345752Y422354D01*
X345798Y422411D01*
X345841Y422473D01*
X345875Y422534D01*
X346079D01*
Y420000D01*
D02*
G37*
G36*
X343702Y422519D02*
X343733D01*
X343809Y422515D01*
X343890Y422507D01*
X343974Y422492D01*
X344055Y422477D01*
X344094Y422465D01*
X344128Y422454D01*
X344132D01*
X344136Y422450D01*
X344159Y422442D01*
X344190Y422423D01*
X344228Y422396D01*
X344274Y422365D01*
X344320Y422323D01*
X344366Y422273D01*
X344408Y422212D01*
X344412Y422204D01*
X344424Y422181D01*
X344443Y422147D01*
X344462Y422100D01*
X344481Y422043D01*
X344501Y421978D01*
X344512Y421908D01*
X344516Y421832D01*
Y421828D01*
Y421820D01*
Y421805D01*
X344512Y421785D01*
Y421763D01*
X344508Y421736D01*
X344493Y421674D01*
X344474Y421601D01*
X344443Y421528D01*
X344397Y421452D01*
X344370Y421413D01*
X344339Y421379D01*
X344332Y421371D01*
X344320Y421363D01*
X344309Y421348D01*
X344289Y421336D01*
X344266Y421317D01*
X344239Y421302D01*
X344209Y421282D01*
X344174Y421263D01*
X344132Y421244D01*
X344090Y421225D01*
X344040Y421206D01*
X343990Y421186D01*
X343932Y421171D01*
X343871Y421160D01*
X343806Y421148D01*
X343813Y421144D01*
X343829Y421137D01*
X343852Y421125D01*
X343879Y421110D01*
X343944Y421067D01*
X343978Y421044D01*
X344005Y421021D01*
X344013Y421014D01*
X344032Y420998D01*
X344059Y420968D01*
X344094Y420929D01*
X344136Y420879D01*
X344182Y420822D01*
X344232Y420756D01*
X344282Y420683D01*
X344720Y420000D01*
X344301D01*
X343967Y420522D01*
Y420526D01*
X343959Y420534D01*
X343952Y420545D01*
X343944Y420561D01*
X343917Y420599D01*
X343882Y420649D01*
X343844Y420707D01*
X343802Y420764D01*
X343763Y420818D01*
X343725Y420868D01*
X343721Y420872D01*
X343709Y420887D01*
X343690Y420910D01*
X343671Y420937D01*
X343614Y420991D01*
X343587Y421018D01*
X343556Y421037D01*
X343552Y421041D01*
X343544Y421044D01*
X343529Y421052D01*
X343510Y421064D01*
X343464Y421087D01*
X343406Y421106D01*
X343402D01*
X343395Y421110D01*
X343379D01*
X343360Y421114D01*
X343333Y421117D01*
X343302D01*
X343264Y421121D01*
X342834D01*
Y420000D01*
X342500D01*
Y422523D01*
X343671D01*
X343702Y422519D01*
D02*
G37*
G36*
X255231Y376256D02*
X257458D01*
Y375922D01*
X255231D01*
Y375092D01*
X254935D01*
Y377085D01*
X255231D01*
Y376256D01*
D02*
G37*
G36*
X256490Y374720D02*
X256525D01*
X256567Y374716D01*
X256613Y374712D01*
X256709Y374700D01*
X256809Y374685D01*
X256909Y374666D01*
X256997Y374635D01*
X257001D01*
X257009Y374631D01*
X257020Y374627D01*
X257035Y374620D01*
X257074Y374597D01*
X257128Y374566D01*
X257185Y374524D01*
X257247Y374470D01*
X257304Y374401D01*
X257362Y374324D01*
Y374320D01*
X257369Y374313D01*
X257373Y374301D01*
X257385Y374282D01*
X257393Y374263D01*
X257404Y374236D01*
X257419Y374201D01*
X257431Y374167D01*
X257442Y374128D01*
X257458Y374082D01*
X257469Y374036D01*
X257477Y373982D01*
X257492Y373867D01*
X257500Y373737D01*
Y373702D01*
X257496Y373679D01*
Y373648D01*
X257492Y373614D01*
X257488Y373575D01*
X257485Y373533D01*
X257469Y373441D01*
X257450Y373345D01*
X257419Y373245D01*
X257381Y373157D01*
Y373153D01*
X257373Y373145D01*
X257369Y373137D01*
X257358Y373122D01*
X257331Y373080D01*
X257289Y373034D01*
X257239Y372980D01*
X257181Y372930D01*
X257108Y372880D01*
X257028Y372838D01*
X257024D01*
X257016Y372834D01*
X257005Y372830D01*
X256985Y372823D01*
X256962Y372815D01*
X256932Y372807D01*
X256897Y372800D01*
X256859Y372792D01*
X256817Y372780D01*
X256770Y372773D01*
X256717Y372765D01*
X256663Y372757D01*
X256602Y372750D01*
X256536Y372746D01*
X256467Y372742D01*
X256394D01*
X254935D01*
Y373076D01*
X256394D01*
X256398D01*
X256410D01*
X256425D01*
X256448D01*
X256475D01*
X256505Y373080D01*
X256578Y373084D01*
X256655Y373091D01*
X256736Y373099D01*
X256813Y373114D01*
X256847Y373122D01*
X256878Y373134D01*
X256886Y373137D01*
X256905Y373145D01*
X256932Y373161D01*
X256966Y373184D01*
X257005Y373211D01*
X257047Y373249D01*
X257085Y373291D01*
X257120Y373345D01*
X257124Y373353D01*
X257131Y373372D01*
X257147Y373403D01*
X257158Y373445D01*
X257174Y373499D01*
X257189Y373560D01*
X257197Y373629D01*
X257201Y373706D01*
Y373740D01*
X257197Y373767D01*
Y373798D01*
X257193Y373833D01*
X257181Y373909D01*
X257158Y373998D01*
X257131Y374082D01*
X257089Y374163D01*
X257066Y374201D01*
X257035Y374232D01*
X257032D01*
X257028Y374240D01*
X257016Y374247D01*
X257001Y374255D01*
X256982Y374270D01*
X256959Y374282D01*
X256928Y374297D01*
X256893Y374313D01*
X256851Y374324D01*
X256805Y374339D01*
X256755Y374355D01*
X256694Y374366D01*
X256628Y374374D01*
X256559Y374382D01*
X256479Y374389D01*
X256394D01*
X254935D01*
Y374723D01*
X256394D01*
X256398D01*
X256410D01*
X256429D01*
X256455D01*
X256490Y374720D01*
D02*
G37*
G36*
X256267Y372304D02*
X256302D01*
X256340Y372300D01*
X256383Y372297D01*
X256433Y372289D01*
X256540Y372270D01*
X256655Y372243D01*
X256774Y372204D01*
X256890Y372151D01*
X256893D01*
X256901Y372143D01*
X256916Y372135D01*
X256939Y372124D01*
X256962Y372105D01*
X256993Y372085D01*
X257058Y372039D01*
X257131Y371978D01*
X257208Y371901D01*
X257281Y371813D01*
X257346Y371713D01*
Y371709D01*
X257354Y371701D01*
X257362Y371686D01*
X257369Y371663D01*
X257381Y371636D01*
X257396Y371605D01*
X257408Y371571D01*
X257423Y371529D01*
X257450Y371440D01*
X257477Y371337D01*
X257492Y371221D01*
X257500Y371102D01*
Y371068D01*
X257496Y371041D01*
Y371010D01*
X257492Y370976D01*
X257485Y370933D01*
X257477Y370887D01*
X257458Y370791D01*
X257427Y370684D01*
X257385Y370572D01*
X257362Y370519D01*
X257331Y370465D01*
X257327Y370461D01*
X257323Y370453D01*
X257312Y370438D01*
X257300Y370419D01*
X257281Y370396D01*
X257262Y370369D01*
X257208Y370307D01*
X257139Y370238D01*
X257062Y370165D01*
X256966Y370100D01*
X256863Y370039D01*
X256859D01*
X256847Y370031D01*
X256832Y370027D01*
X256809Y370016D01*
X256782Y370004D01*
X256751Y369992D01*
X256713Y369981D01*
X256671Y369970D01*
X256625Y369954D01*
X256578Y369943D01*
X256471Y369920D01*
X256356Y369904D01*
X256233Y369897D01*
X256225D01*
X256206D01*
X256171Y369900D01*
X256129D01*
X256075Y369908D01*
X256014Y369916D01*
X255949Y369923D01*
X255872Y369939D01*
X255795Y369958D01*
X255714Y369977D01*
X255634Y370004D01*
X255553Y370039D01*
X255472Y370077D01*
X255392Y370119D01*
X255319Y370173D01*
X255250Y370231D01*
X255246Y370234D01*
X255234Y370246D01*
X255215Y370265D01*
X255192Y370292D01*
X255165Y370327D01*
X255138Y370365D01*
X255104Y370411D01*
X255069Y370465D01*
X255039Y370526D01*
X255004Y370592D01*
X254977Y370665D01*
X254946Y370741D01*
X254927Y370822D01*
X254908Y370910D01*
X254896Y371006D01*
X254893Y371102D01*
Y371137D01*
X254896Y371160D01*
Y371191D01*
X254900Y371229D01*
X254908Y371267D01*
X254912Y371314D01*
X254935Y371410D01*
X254966Y371517D01*
X255004Y371624D01*
X255031Y371678D01*
X255062Y371732D01*
Y371736D01*
X255069Y371744D01*
X255077Y371759D01*
X255092Y371778D01*
X255108Y371801D01*
X255131Y371828D01*
X255181Y371889D01*
X255246Y371959D01*
X255327Y372032D01*
X255419Y372097D01*
X255526Y372158D01*
X255530D01*
X255542Y372166D01*
X255557Y372174D01*
X255580Y372181D01*
X255607Y372193D01*
X255642Y372204D01*
X255680Y372220D01*
X255722Y372235D01*
X255772Y372247D01*
X255822Y372262D01*
X255937Y372285D01*
X256064Y372300D01*
X256202Y372308D01*
X256206D01*
X256218D01*
X256241D01*
X256267Y372304D01*
D02*
G37*
G36*
X256678Y369585D02*
X256698Y369578D01*
X256728Y369570D01*
X256759Y369555D01*
X256801Y369539D01*
X256843Y369524D01*
X256890Y369501D01*
X256993Y369451D01*
X257097Y369382D01*
X257197Y369305D01*
X257243Y369259D01*
X257285Y369209D01*
X257289Y369205D01*
X257293Y369198D01*
X257304Y369182D01*
X257319Y369159D01*
X257335Y369132D01*
X257354Y369102D01*
X257373Y369067D01*
X257393Y369025D01*
X257412Y368979D01*
X257431Y368929D01*
X257450Y368871D01*
X257466Y368814D01*
X257492Y368687D01*
X257496Y368618D01*
X257500Y368545D01*
Y368507D01*
X257496Y368476D01*
Y368441D01*
X257492Y368403D01*
X257485Y368357D01*
X257481Y368311D01*
X257458Y368203D01*
X257431Y368092D01*
X257389Y367984D01*
X257366Y367931D01*
X257335Y367881D01*
X257331Y367877D01*
X257327Y367869D01*
X257316Y367858D01*
X257304Y367838D01*
X257266Y367792D01*
X257212Y367739D01*
X257147Y367673D01*
X257062Y367612D01*
X256966Y367547D01*
X256855Y367493D01*
X256851D01*
X256840Y367489D01*
X256824Y367481D01*
X256801Y367474D01*
X256770Y367462D01*
X256736Y367450D01*
X256698Y367439D01*
X256651Y367427D01*
X256605Y367416D01*
X256552Y367404D01*
X256436Y367381D01*
X256313Y367366D01*
X256179Y367362D01*
X256175D01*
X256160D01*
X256141D01*
X256114Y367366D01*
X256079D01*
X256037Y367370D01*
X255995Y367374D01*
X255945Y367381D01*
X255837Y367401D01*
X255722Y367424D01*
X255603Y367462D01*
X255492Y367512D01*
X255488D01*
X255480Y367520D01*
X255465Y367527D01*
X255442Y367539D01*
X255419Y367554D01*
X255392Y367573D01*
X255327Y367623D01*
X255254Y367681D01*
X255181Y367754D01*
X255108Y367842D01*
X255046Y367938D01*
Y367942D01*
X255039Y367950D01*
X255031Y367965D01*
X255023Y367988D01*
X255012Y368011D01*
X254996Y368042D01*
X254985Y368080D01*
X254970Y368119D01*
X254954Y368161D01*
X254943Y368207D01*
X254916Y368311D01*
X254900Y368426D01*
X254893Y368549D01*
Y368587D01*
X254896Y368614D01*
X254900Y368645D01*
X254904Y368683D01*
X254908Y368725D01*
X254916Y368771D01*
X254939Y368871D01*
X254973Y368979D01*
X254996Y369033D01*
X255023Y369086D01*
X255054Y369136D01*
X255088Y369186D01*
X255092Y369190D01*
X255096Y369198D01*
X255108Y369209D01*
X255123Y369228D01*
X255142Y369248D01*
X255169Y369274D01*
X255196Y369301D01*
X255227Y369328D01*
X255265Y369359D01*
X255304Y369386D01*
X255350Y369417D01*
X255399Y369447D01*
X255450Y369474D01*
X255507Y369501D01*
X255630Y369547D01*
X255707Y369217D01*
X255703D01*
X255695Y369213D01*
X255680Y369209D01*
X255661Y369201D01*
X255638Y369190D01*
X255611Y369179D01*
X255553Y369152D01*
X255488Y369117D01*
X255419Y369071D01*
X255357Y369021D01*
X255304Y368960D01*
X255300Y368952D01*
X255284Y368929D01*
X255265Y368894D01*
X255238Y368844D01*
X255215Y368787D01*
X255196Y368714D01*
X255181Y368633D01*
X255177Y368541D01*
Y368514D01*
X255181Y368495D01*
Y368468D01*
X255185Y368441D01*
X255196Y368372D01*
X255211Y368295D01*
X255238Y368215D01*
X255273Y368134D01*
X255319Y368057D01*
Y368053D01*
X255327Y368050D01*
X255346Y368026D01*
X255377Y367992D01*
X255419Y367950D01*
X255472Y367907D01*
X255534Y367861D01*
X255611Y367819D01*
X255695Y367785D01*
X255699D01*
X255707Y367781D01*
X255718Y367777D01*
X255737Y367773D01*
X255757Y367765D01*
X255784Y367761D01*
X255845Y367746D01*
X255918Y367731D01*
X255999Y367719D01*
X256087Y367712D01*
X256179Y367708D01*
X256183D01*
X256194D01*
X256210D01*
X256233D01*
X256260Y367712D01*
X256294D01*
X256329Y367715D01*
X256367Y367719D01*
X256455Y367731D01*
X256552Y367746D01*
X256648Y367769D01*
X256740Y367800D01*
X256744D01*
X256751Y367804D01*
X256763Y367811D01*
X256778Y367819D01*
X256824Y367838D01*
X256874Y367869D01*
X256936Y367911D01*
X256993Y367961D01*
X257051Y368019D01*
X257101Y368088D01*
Y368092D01*
X257104Y368096D01*
X257112Y368107D01*
X257120Y368123D01*
X257135Y368165D01*
X257158Y368218D01*
X257177Y368280D01*
X257197Y368353D01*
X257212Y368433D01*
X257216Y368518D01*
Y368545D01*
X257212Y368564D01*
Y368587D01*
X257208Y368618D01*
X257197Y368683D01*
X257177Y368756D01*
X257147Y368837D01*
X257108Y368914D01*
X257055Y368990D01*
X257051Y368994D01*
X257047Y368998D01*
X257024Y369021D01*
X256985Y369056D01*
X256936Y369098D01*
X256866Y369140D01*
X256786Y369186D01*
X256686Y369225D01*
X256575Y369255D01*
X256659Y369589D01*
X256663D01*
X256678Y369585D01*
D02*
G37*
G36*
X391386Y379996D02*
X391421D01*
X391463Y379992D01*
X391505Y379989D01*
X391555Y379981D01*
X391663Y379962D01*
X391778Y379939D01*
X391897Y379900D01*
X392008Y379850D01*
X392012D01*
X392020Y379843D01*
X392035Y379835D01*
X392058Y379823D01*
X392081Y379808D01*
X392108Y379789D01*
X392173Y379739D01*
X392246Y379681D01*
X392319Y379608D01*
X392392Y379520D01*
X392454Y379424D01*
Y379420D01*
X392461Y379413D01*
X392469Y379397D01*
X392477Y379374D01*
X392488Y379351D01*
X392504Y379320D01*
X392515Y379282D01*
X392530Y379244D01*
X392546Y379201D01*
X392557Y379155D01*
X392584Y379051D01*
X392600Y378936D01*
X392607Y378814D01*
Y378775D01*
X392603Y378748D01*
X392600Y378717D01*
X392596Y378679D01*
X392592Y378637D01*
X392584Y378591D01*
X392561Y378491D01*
X392527Y378383D01*
X392504Y378330D01*
X392477Y378276D01*
X392446Y378226D01*
X392411Y378176D01*
X392408Y378172D01*
X392404Y378165D01*
X392392Y378153D01*
X392377Y378134D01*
X392358Y378115D01*
X392331Y378088D01*
X392304Y378061D01*
X392273Y378034D01*
X392235Y378003D01*
X392196Y377976D01*
X392150Y377946D01*
X392100Y377915D01*
X392051Y377888D01*
X391993Y377861D01*
X391870Y377815D01*
X391793Y378145D01*
X391797D01*
X391805Y378149D01*
X391820Y378153D01*
X391839Y378161D01*
X391862Y378172D01*
X391889Y378184D01*
X391947Y378211D01*
X392012Y378245D01*
X392081Y378291D01*
X392143Y378341D01*
X392196Y378403D01*
X392200Y378410D01*
X392216Y378433D01*
X392235Y378468D01*
X392262Y378518D01*
X392285Y378575D01*
X392304Y378648D01*
X392319Y378729D01*
X392323Y378821D01*
Y378848D01*
X392319Y378867D01*
Y378894D01*
X392316Y378921D01*
X392304Y378990D01*
X392289Y379067D01*
X392262Y379148D01*
X392227Y379228D01*
X392181Y379305D01*
Y379309D01*
X392173Y379313D01*
X392154Y379336D01*
X392124Y379370D01*
X392081Y379413D01*
X392027Y379455D01*
X391966Y379501D01*
X391889Y379543D01*
X391805Y379578D01*
X391801D01*
X391793Y379581D01*
X391782Y379585D01*
X391762Y379589D01*
X391743Y379597D01*
X391716Y379601D01*
X391655Y379616D01*
X391582Y379631D01*
X391501Y379643D01*
X391413Y379651D01*
X391321Y379654D01*
X391317D01*
X391305D01*
X391290D01*
X391267D01*
X391240Y379651D01*
X391206D01*
X391171Y379647D01*
X391133Y379643D01*
X391044Y379631D01*
X390948Y379616D01*
X390852Y379593D01*
X390760Y379562D01*
X390756D01*
X390749Y379558D01*
X390737Y379551D01*
X390722Y379543D01*
X390676Y379524D01*
X390626Y379493D01*
X390564Y379451D01*
X390507Y379401D01*
X390449Y379343D01*
X390399Y379274D01*
Y379270D01*
X390395Y379267D01*
X390388Y379255D01*
X390380Y379240D01*
X390365Y379198D01*
X390342Y379144D01*
X390322Y379082D01*
X390303Y379009D01*
X390288Y378929D01*
X390284Y378844D01*
Y378817D01*
X390288Y378798D01*
Y378775D01*
X390292Y378744D01*
X390303Y378679D01*
X390322Y378606D01*
X390353Y378525D01*
X390392Y378449D01*
X390445Y378372D01*
X390449Y378368D01*
X390453Y378364D01*
X390476Y378341D01*
X390514Y378307D01*
X390564Y378264D01*
X390634Y378222D01*
X390714Y378176D01*
X390814Y378138D01*
X390925Y378107D01*
X390841Y377773D01*
X390837D01*
X390822Y377777D01*
X390803Y377784D01*
X390772Y377792D01*
X390741Y377807D01*
X390699Y377823D01*
X390657Y377838D01*
X390611Y377861D01*
X390507Y377911D01*
X390403Y377980D01*
X390303Y378057D01*
X390257Y378103D01*
X390215Y378153D01*
X390211Y378157D01*
X390207Y378165D01*
X390196Y378180D01*
X390180Y378203D01*
X390165Y378230D01*
X390146Y378260D01*
X390127Y378295D01*
X390107Y378337D01*
X390088Y378383D01*
X390069Y378433D01*
X390050Y378491D01*
X390035Y378549D01*
X390008Y378675D01*
X390004Y378744D01*
X390000Y378817D01*
Y378856D01*
X390004Y378886D01*
Y378921D01*
X390008Y378959D01*
X390015Y379006D01*
X390019Y379051D01*
X390042Y379159D01*
X390069Y379270D01*
X390111Y379378D01*
X390134Y379432D01*
X390165Y379482D01*
X390169Y379486D01*
X390173Y379493D01*
X390184Y379505D01*
X390196Y379524D01*
X390234Y379570D01*
X390288Y379624D01*
X390353Y379689D01*
X390438Y379750D01*
X390534Y379816D01*
X390645Y379870D01*
X390649D01*
X390660Y379873D01*
X390676Y379881D01*
X390699Y379889D01*
X390730Y379900D01*
X390764Y379912D01*
X390803Y379923D01*
X390849Y379935D01*
X390895Y379946D01*
X390948Y379958D01*
X391064Y379981D01*
X391186Y379996D01*
X391321Y380000D01*
X391325D01*
X391340D01*
X391359D01*
X391386Y379996D01*
D02*
G37*
G36*
X392565Y376387D02*
X392561Y376360D01*
Y376333D01*
X392557Y376268D01*
X392546Y376195D01*
X392534Y376118D01*
X392515Y376041D01*
X392488Y375972D01*
Y375968D01*
X392484Y375964D01*
X392473Y375941D01*
X392454Y375910D01*
X392431Y375872D01*
X392396Y375826D01*
X392354Y375780D01*
X392308Y375738D01*
X392250Y375695D01*
X392243Y375692D01*
X392223Y375680D01*
X392189Y375665D01*
X392146Y375645D01*
X392097Y375626D01*
X392043Y375611D01*
X391981Y375599D01*
X391916Y375596D01*
X391908D01*
X391889D01*
X391859Y375599D01*
X391816Y375607D01*
X391770Y375619D01*
X391720Y375634D01*
X391663Y375653D01*
X391609Y375684D01*
X391601Y375688D01*
X391586Y375699D01*
X391559Y375722D01*
X391528Y375749D01*
X391490Y375788D01*
X391455Y375834D01*
X391417Y375887D01*
X391382Y375953D01*
Y375949D01*
X391378Y375941D01*
X391375Y375930D01*
X391371Y375914D01*
X391352Y375872D01*
X391329Y375822D01*
X391294Y375764D01*
X391256Y375707D01*
X391210Y375649D01*
X391152Y375599D01*
X391144Y375596D01*
X391125Y375580D01*
X391090Y375561D01*
X391044Y375534D01*
X390987Y375511D01*
X390925Y375492D01*
X390852Y375477D01*
X390772Y375473D01*
X390764D01*
X390741D01*
X390706Y375477D01*
X390664Y375480D01*
X390614Y375492D01*
X390557Y375503D01*
X390499Y375523D01*
X390442Y375550D01*
X390434Y375553D01*
X390415Y375561D01*
X390388Y375580D01*
X390353Y375599D01*
X390315Y375626D01*
X390276Y375657D01*
X390238Y375695D01*
X390203Y375734D01*
X390200Y375738D01*
X390192Y375753D01*
X390177Y375776D01*
X390157Y375811D01*
X390138Y375849D01*
X390119Y375899D01*
X390100Y375953D01*
X390081Y376010D01*
Y376018D01*
X390073Y376041D01*
X390069Y376076D01*
X390061Y376122D01*
X390054Y376183D01*
X390050Y376252D01*
X390042Y376329D01*
Y377377D01*
X392565D01*
Y376387D01*
D02*
G37*
G36*
Y373979D02*
X392561Y373921D01*
X392557Y373860D01*
X392553Y373795D01*
X392546Y373733D01*
X392538Y373679D01*
Y373672D01*
X392530Y373649D01*
X392523Y373614D01*
X392511Y373572D01*
X392496Y373522D01*
X392477Y373472D01*
X392450Y373418D01*
X392419Y373368D01*
X392415Y373364D01*
X392404Y373345D01*
X392385Y373322D01*
X392358Y373295D01*
X392323Y373265D01*
X392281Y373230D01*
X392235Y373196D01*
X392177Y373165D01*
X392169Y373161D01*
X392150Y373153D01*
X392120Y373142D01*
X392077Y373126D01*
X392027Y373111D01*
X391970Y373099D01*
X391905Y373092D01*
X391835Y373088D01*
X391832D01*
X391820D01*
X391805D01*
X391782Y373092D01*
X391755Y373096D01*
X391720Y373099D01*
X391686Y373103D01*
X391647Y373115D01*
X391559Y373138D01*
X391471Y373176D01*
X391425Y373199D01*
X391378Y373226D01*
X391332Y373257D01*
X391290Y373295D01*
X391286Y373299D01*
X391283Y373307D01*
X391271Y373318D01*
X391256Y373334D01*
X391240Y373361D01*
X391221Y373388D01*
X391202Y373422D01*
X391183Y373464D01*
X391160Y373510D01*
X391140Y373564D01*
X391121Y373626D01*
X391106Y373691D01*
X391090Y373768D01*
X391079Y373848D01*
X391075Y373937D01*
X391071Y374033D01*
Y374678D01*
X390042D01*
Y375012D01*
X392565D01*
Y373979D01*
D02*
G37*
G36*
X349958Y330395D02*
X347976Y329070D01*
X349958D01*
Y328751D01*
X347435D01*
Y329089D01*
X349416Y330418D01*
X347435D01*
Y330736D01*
X349958D01*
Y330395D01*
D02*
G37*
G36*
Y327833D02*
X347435D01*
Y328168D01*
X349958D01*
Y327833D01*
D02*
G37*
G36*
X349178Y327361D02*
X349198Y327353D01*
X349228Y327346D01*
X349259Y327330D01*
X349301Y327315D01*
X349343Y327300D01*
X349390Y327277D01*
X349493Y327227D01*
X349597Y327158D01*
X349697Y327081D01*
X349743Y327035D01*
X349785Y326985D01*
X349789Y326981D01*
X349793Y326973D01*
X349804Y326958D01*
X349819Y326935D01*
X349835Y326908D01*
X349854Y326877D01*
X349873Y326843D01*
X349892Y326800D01*
X349912Y326754D01*
X349931Y326705D01*
X349950Y326647D01*
X349966Y326589D01*
X349992Y326463D01*
X349996Y326393D01*
X350000Y326321D01*
Y326282D01*
X349996Y326251D01*
Y326217D01*
X349992Y326178D01*
X349985Y326132D01*
X349981Y326086D01*
X349958Y325979D01*
X349931Y325867D01*
X349889Y325760D01*
X349866Y325706D01*
X349835Y325656D01*
X349831Y325652D01*
X349827Y325645D01*
X349816Y325633D01*
X349804Y325614D01*
X349766Y325568D01*
X349712Y325514D01*
X349647Y325449D01*
X349562Y325387D01*
X349466Y325322D01*
X349355Y325268D01*
X349351D01*
X349340Y325265D01*
X349324Y325257D01*
X349301Y325249D01*
X349270Y325238D01*
X349236Y325226D01*
X349198Y325215D01*
X349151Y325203D01*
X349105Y325191D01*
X349051Y325180D01*
X348936Y325157D01*
X348814Y325142D01*
X348679Y325138D01*
X348675D01*
X348660D01*
X348641D01*
X348614Y325142D01*
X348579D01*
X348537Y325145D01*
X348495Y325149D01*
X348445Y325157D01*
X348337Y325176D01*
X348222Y325199D01*
X348103Y325238D01*
X347992Y325288D01*
X347988D01*
X347980Y325295D01*
X347965Y325303D01*
X347942Y325314D01*
X347919Y325330D01*
X347892Y325349D01*
X347827Y325399D01*
X347754Y325457D01*
X347681Y325529D01*
X347608Y325618D01*
X347546Y325714D01*
Y325718D01*
X347539Y325725D01*
X347531Y325741D01*
X347523Y325764D01*
X347512Y325787D01*
X347496Y325817D01*
X347485Y325856D01*
X347469Y325894D01*
X347454Y325937D01*
X347443Y325982D01*
X347416Y326086D01*
X347400Y326201D01*
X347393Y326324D01*
Y326363D01*
X347396Y326390D01*
X347400Y326420D01*
X347404Y326459D01*
X347408Y326501D01*
X347416Y326547D01*
X347439Y326647D01*
X347473Y326754D01*
X347496Y326808D01*
X347523Y326862D01*
X347554Y326912D01*
X347588Y326962D01*
X347592Y326966D01*
X347596Y326973D01*
X347608Y326985D01*
X347623Y327004D01*
X347642Y327023D01*
X347669Y327050D01*
X347696Y327077D01*
X347727Y327104D01*
X347765Y327134D01*
X347803Y327161D01*
X347850Y327192D01*
X347900Y327223D01*
X347950Y327250D01*
X348007Y327277D01*
X348130Y327323D01*
X348207Y326993D01*
X348203D01*
X348195Y326989D01*
X348180Y326985D01*
X348161Y326977D01*
X348138Y326966D01*
X348111Y326954D01*
X348053Y326927D01*
X347988Y326893D01*
X347919Y326847D01*
X347857Y326797D01*
X347803Y326735D01*
X347800Y326728D01*
X347784Y326705D01*
X347765Y326670D01*
X347738Y326620D01*
X347715Y326562D01*
X347696Y326489D01*
X347681Y326409D01*
X347677Y326317D01*
Y326290D01*
X347681Y326271D01*
Y326244D01*
X347685Y326217D01*
X347696Y326148D01*
X347711Y326071D01*
X347738Y325990D01*
X347773Y325910D01*
X347819Y325833D01*
Y325829D01*
X347827Y325825D01*
X347846Y325802D01*
X347877Y325767D01*
X347919Y325725D01*
X347972Y325683D01*
X348034Y325637D01*
X348111Y325595D01*
X348195Y325560D01*
X348199D01*
X348207Y325556D01*
X348218Y325553D01*
X348237Y325549D01*
X348257Y325541D01*
X348284Y325537D01*
X348345Y325522D01*
X348418Y325506D01*
X348499Y325495D01*
X348587Y325487D01*
X348679Y325483D01*
X348683D01*
X348694D01*
X348710D01*
X348733D01*
X348760Y325487D01*
X348794D01*
X348829Y325491D01*
X348867Y325495D01*
X348955Y325506D01*
X349051Y325522D01*
X349148Y325545D01*
X349240Y325575D01*
X349244D01*
X349251Y325579D01*
X349263Y325587D01*
X349278Y325595D01*
X349324Y325614D01*
X349374Y325645D01*
X349436Y325687D01*
X349493Y325737D01*
X349551Y325794D01*
X349601Y325864D01*
Y325867D01*
X349605Y325871D01*
X349612Y325883D01*
X349620Y325898D01*
X349635Y325940D01*
X349658Y325994D01*
X349677Y326056D01*
X349697Y326129D01*
X349712Y326209D01*
X349716Y326294D01*
Y326321D01*
X349712Y326340D01*
Y326363D01*
X349708Y326393D01*
X349697Y326459D01*
X349677Y326532D01*
X349647Y326612D01*
X349608Y326689D01*
X349555Y326766D01*
X349551Y326770D01*
X349547Y326774D01*
X349524Y326797D01*
X349485Y326831D01*
X349436Y326873D01*
X349366Y326916D01*
X349286Y326962D01*
X349186Y327000D01*
X349075Y327031D01*
X349159Y327365D01*
X349163D01*
X349178Y327361D01*
D02*
G37*
%LPC*%
G36*
X294968Y409742D02*
X294173D01*
Y408909D01*
X294925D01*
X294968Y408913D01*
X295017Y408917D01*
X295075Y408921D01*
X295136Y408928D01*
X295194Y408940D01*
X295244Y408955D01*
X295252Y408959D01*
X295267Y408963D01*
X295290Y408975D01*
X295317Y408990D01*
X295348Y409013D01*
X295382Y409040D01*
X295413Y409070D01*
X295440Y409105D01*
X295444Y409109D01*
X295451Y409124D01*
X295463Y409143D01*
X295474Y409174D01*
X295486Y409205D01*
X295497Y409243D01*
X295505Y409286D01*
X295509Y409332D01*
Y409336D01*
Y409339D01*
Y409362D01*
X295501Y409393D01*
X295494Y409435D01*
X295478Y409481D01*
X295455Y409531D01*
X295421Y409581D01*
X295378Y409627D01*
X295371Y409631D01*
X295355Y409647D01*
X295321Y409666D01*
X295279Y409685D01*
X295221Y409708D01*
X295152Y409723D01*
X295067Y409739D01*
X294968Y409742D01*
D02*
G37*
G36*
X343629Y422242D02*
X342834D01*
Y421409D01*
X343587D01*
X343629Y421413D01*
X343679Y421417D01*
X343736Y421421D01*
X343798Y421428D01*
X343856Y421440D01*
X343905Y421455D01*
X343913Y421459D01*
X343928Y421463D01*
X343952Y421475D01*
X343978Y421490D01*
X344009Y421513D01*
X344044Y421540D01*
X344074Y421570D01*
X344101Y421605D01*
X344105Y421609D01*
X344113Y421624D01*
X344124Y421643D01*
X344136Y421674D01*
X344147Y421705D01*
X344159Y421743D01*
X344166Y421785D01*
X344170Y421832D01*
Y421836D01*
Y421839D01*
Y421862D01*
X344163Y421893D01*
X344155Y421935D01*
X344140Y421981D01*
X344117Y422031D01*
X344082Y422081D01*
X344040Y422127D01*
X344032Y422131D01*
X344017Y422147D01*
X343982Y422166D01*
X343940Y422185D01*
X343882Y422208D01*
X343813Y422223D01*
X343729Y422239D01*
X343629Y422242D01*
D02*
G37*
G36*
X256202Y371962D02*
X256198D01*
X256187D01*
X256171D01*
X256152D01*
X256125Y371959D01*
X256091D01*
X256018Y371951D01*
X255937Y371936D01*
X255845Y371916D01*
X255753Y371889D01*
X255664Y371855D01*
X255661D01*
X255653Y371851D01*
X255642Y371843D01*
X255626Y371836D01*
X255584Y371813D01*
X255534Y371778D01*
X255476Y371736D01*
X255415Y371682D01*
X255357Y371621D01*
X255307Y371552D01*
Y371548D01*
X255304Y371544D01*
X255296Y371532D01*
X255288Y371517D01*
X255269Y371475D01*
X255242Y371421D01*
X255219Y371356D01*
X255200Y371279D01*
X255185Y371195D01*
X255181Y371102D01*
Y371068D01*
X255185Y371045D01*
X255188Y371014D01*
X255192Y370976D01*
X255200Y370937D01*
X255211Y370895D01*
X255242Y370799D01*
X255261Y370749D01*
X255284Y370699D01*
X255311Y370645D01*
X255346Y370595D01*
X255384Y370546D01*
X255426Y370496D01*
X255430Y370492D01*
X255438Y370484D01*
X255453Y370473D01*
X255472Y370457D01*
X255499Y370438D01*
X255534Y370415D01*
X255572Y370392D01*
X255618Y370369D01*
X255672Y370346D01*
X255730Y370323D01*
X255795Y370300D01*
X255872Y370281D01*
X255953Y370265D01*
X256037Y370254D01*
X256133Y370246D01*
X256237Y370242D01*
X256241D01*
X256256D01*
X256279D01*
X256313Y370246D01*
X256352Y370250D01*
X256394Y370254D01*
X256444Y370261D01*
X256498Y370273D01*
X256613Y370300D01*
X256671Y370323D01*
X256732Y370346D01*
X256790Y370373D01*
X256847Y370403D01*
X256905Y370442D01*
X256955Y370484D01*
X256959Y370488D01*
X256966Y370496D01*
X256978Y370511D01*
X256997Y370530D01*
X257016Y370553D01*
X257035Y370580D01*
X257062Y370615D01*
X257085Y370653D01*
X257108Y370695D01*
X257131Y370741D01*
X257154Y370791D01*
X257174Y370849D01*
X257193Y370906D01*
X257204Y370968D01*
X257212Y371029D01*
X257216Y371098D01*
Y371133D01*
X257212Y371160D01*
X257208Y371195D01*
X257201Y371229D01*
X257193Y371271D01*
X257181Y371317D01*
X257151Y371413D01*
X257131Y371467D01*
X257104Y371517D01*
X257074Y371571D01*
X257039Y371621D01*
X257001Y371671D01*
X256955Y371717D01*
X256951Y371721D01*
X256943Y371728D01*
X256928Y371740D01*
X256905Y371755D01*
X256878Y371774D01*
X256843Y371794D01*
X256805Y371817D01*
X256763Y371840D01*
X256709Y371863D01*
X256655Y371886D01*
X256594Y371905D01*
X256525Y371924D01*
X256452Y371939D01*
X256375Y371951D01*
X256290Y371959D01*
X256202Y371962D01*
D02*
G37*
G36*
X392269Y377043D02*
X391501D01*
Y376425D01*
X391505Y376379D01*
X391509Y376325D01*
X391513Y376271D01*
X391521Y376225D01*
X391528Y376183D01*
X391532Y376179D01*
X391536Y376164D01*
X391544Y376141D01*
X391559Y376110D01*
X391574Y376079D01*
X391597Y376049D01*
X391624Y376018D01*
X391655Y375991D01*
X391659Y375987D01*
X391670Y375980D01*
X391690Y375972D01*
X391716Y375957D01*
X391747Y375945D01*
X391786Y375937D01*
X391828Y375930D01*
X391878Y375926D01*
X391882D01*
X391901D01*
X391924Y375930D01*
X391954Y375934D01*
X391989Y375941D01*
X392024Y375953D01*
X392062Y375968D01*
X392100Y375987D01*
X392104Y375991D01*
X392116Y375999D01*
X392131Y376014D01*
X392154Y376033D01*
X392173Y376056D01*
X392196Y376087D01*
X392216Y376122D01*
X392231Y376160D01*
Y376164D01*
X392239Y376183D01*
X392243Y376210D01*
X392250Y376248D01*
X392258Y376302D01*
X392262Y376367D01*
X392269Y376448D01*
Y377043D01*
D02*
G37*
G36*
X391206D02*
X390338D01*
Y376329D01*
X390342Y376252D01*
X390346Y376218D01*
X390349Y376191D01*
Y376187D01*
X390353Y376171D01*
X390357Y376149D01*
X390365Y376122D01*
X390384Y376060D01*
X390415Y375999D01*
X390419Y375995D01*
X390422Y375983D01*
X390434Y375972D01*
X390453Y375953D01*
X390472Y375930D01*
X390495Y375910D01*
X390526Y375887D01*
X390557Y375868D01*
X390561Y375864D01*
X390572Y375861D01*
X390591Y375853D01*
X390618Y375841D01*
X390649Y375834D01*
X390687Y375826D01*
X390726Y375822D01*
X390772Y375818D01*
X390779D01*
X390795D01*
X390822Y375822D01*
X390852Y375826D01*
X390891Y375837D01*
X390933Y375849D01*
X390975Y375868D01*
X391014Y375895D01*
X391018Y375899D01*
X391033Y375907D01*
X391048Y375926D01*
X391071Y375949D01*
X391098Y375976D01*
X391121Y376010D01*
X391144Y376049D01*
X391163Y376095D01*
X391167Y376102D01*
X391171Y376118D01*
X391179Y376149D01*
X391186Y376187D01*
X391194Y376241D01*
X391198Y376302D01*
X391206Y376379D01*
Y377043D01*
D02*
G37*
G36*
X392269Y374678D02*
X391367D01*
Y373998D01*
X391371Y373975D01*
Y373948D01*
X391375Y373921D01*
X391382Y373852D01*
X391398Y373775D01*
X391417Y373699D01*
X391448Y373629D01*
X391467Y373599D01*
X391486Y373572D01*
X391490Y373564D01*
X391509Y373549D01*
X391536Y373530D01*
X391574Y373503D01*
X391620Y373476D01*
X391678Y373457D01*
X391747Y373441D01*
X391824Y373434D01*
X391832D01*
X391851D01*
X391882Y373438D01*
X391920Y373445D01*
X391962Y373453D01*
X392008Y373468D01*
X392054Y373487D01*
X392097Y373514D01*
X392100Y373518D01*
X392116Y373530D01*
X392135Y373545D01*
X392158Y373572D01*
X392181Y373603D01*
X392208Y373637D01*
X392227Y373679D01*
X392246Y373726D01*
Y373729D01*
X392250Y373741D01*
X392254Y373764D01*
X392258Y373795D01*
X392262Y373837D01*
X392266Y373891D01*
X392269Y373960D01*
Y374678D01*
D02*
G37*
%LPD*%
D11*
X287736Y404252D02*
Y410748D01*
Y404252D02*
X299941D01*
Y410748D01*
X287736D02*
X299941D01*
X337677Y417638D02*
Y422362D01*
Y417638D02*
X347323D01*
Y422362D01*
X337677D02*
X347323D01*
X255138Y362638D02*
X259862D01*
Y372087D01*
X255138D02*
X259862D01*
X255138Y362638D02*
Y372087D01*
X387638Y384724D02*
X392362D01*
X387638Y375276D02*
Y384724D01*
Y375276D02*
X392362D01*
Y384724D01*
X347638Y320413D02*
X352362D01*
Y329862D01*
X347638D02*
X352362D01*
X347638Y320413D02*
Y329862D01*
M02*
