G04*
G04 #@! TF.GenerationSoftware,Altium Limited,Altium Designer,20.0.2 (26)*
G04*
G04 Layer_Color=8388736*
%FSLAX25Y25*%
%MOIN*%
G70*
G01*
G75*
%ADD16R,0.03740X0.05709*%
%ADD17R,0.02953X0.03937*%
%ADD18R,0.03543X0.02953*%
%ADD19R,0.04540X0.03359*%
%ADD20R,0.04540X0.02259*%
%ADD21R,0.04540X0.02259*%
%ADD22R,0.07493X0.07493*%
%ADD23C,0.07493*%
%ADD24C,0.06902*%
%ADD25R,0.06902X0.06902*%
%ADD26C,0.03601*%
%ADD27O,0.05806X0.03447*%
D16*
X297677Y407500D02*
D03*
X290000D02*
D03*
D17*
X345453Y420000D02*
D03*
X339547D02*
D03*
D18*
X257500Y369724D02*
D03*
Y365000D02*
D03*
X390000Y377638D02*
D03*
Y382362D02*
D03*
X350000Y327500D02*
D03*
Y322776D02*
D03*
D19*
X353327Y376693D02*
D03*
Y370000D02*
D03*
D20*
X342500D02*
D03*
Y373346D02*
D03*
D21*
Y376693D02*
D03*
D22*
X420000Y342500D02*
D03*
D23*
Y352500D02*
D03*
D24*
X250000Y407500D02*
D03*
D25*
X240000D02*
D03*
D26*
X420866Y393307D02*
D03*
Y398425D02*
D03*
Y403543D02*
D03*
X416929Y400984D02*
D03*
Y395866D02*
D03*
D27*
X420000Y384350D02*
D03*
Y412500D02*
D03*
M02*
