G04*
G04 #@! TF.GenerationSoftware,Altium Limited,Altium Designer,20.0.2 (26)*
G04*
G04 Layer_Color=255*
%FSLAX25Y25*%
%MOIN*%
G70*
G01*
G75*
%ADD13R,0.03740X0.02559*%
%ADD14R,0.03740X0.01459*%
%ADD15R,0.03740X0.01459*%
%ADD16R,0.03740X0.05709*%
%ADD17R,0.02953X0.03937*%
%ADD18R,0.03543X0.02953*%
%ADD28R,0.06693X0.06693*%
%ADD29C,0.06693*%
%ADD30C,0.06102*%
%ADD31R,0.06102X0.06102*%
%ADD32C,0.02801*%
%ADD33O,0.05006X0.02647*%
D13*
X353327Y376693D02*
D03*
Y370000D02*
D03*
D14*
X342500D02*
D03*
Y373346D02*
D03*
D15*
Y376693D02*
D03*
D16*
X297677Y407500D02*
D03*
X290000D02*
D03*
D17*
X345453Y420000D02*
D03*
X339547D02*
D03*
D18*
X257500Y369724D02*
D03*
Y365000D02*
D03*
X390000Y377638D02*
D03*
Y382362D02*
D03*
X350000Y327500D02*
D03*
Y322776D02*
D03*
D28*
X420000Y342500D02*
D03*
D29*
Y352500D02*
D03*
D30*
X250000Y407500D02*
D03*
D31*
X240000D02*
D03*
D32*
X420866Y393307D02*
D03*
Y398425D02*
D03*
Y403543D02*
D03*
X416929Y400984D02*
D03*
Y395866D02*
D03*
D33*
X420000Y384350D02*
D03*
Y412500D02*
D03*
M02*
