G04*
G04 #@! TF.GenerationSoftware,Altium Limited,Altium Designer,20.0.2 (26)*
G04*
G04 Layer_Physical_Order=2*
G04 Layer_Color=16711680*
%FSLAX25Y25*%
%MOIN*%
G70*
G01*
G75*
%ADD28R,0.06693X0.06693*%
%ADD29C,0.06693*%
%ADD30C,0.06102*%
%ADD31R,0.06102X0.06102*%
%ADD32C,0.02801*%
%ADD33O,0.05006X0.02647*%
G36*
X450000Y312500D02*
X220000D01*
Y440000D01*
X450000D01*
Y312500D01*
D02*
G37*
%LPC*%
G36*
X421179Y414869D02*
X418820D01*
X417914Y414688D01*
X417145Y414175D01*
X416632Y413407D01*
X416452Y412500D01*
X416632Y411593D01*
X417145Y410825D01*
X417914Y410312D01*
X418820Y410131D01*
X421179D01*
X422086Y410312D01*
X422855Y410825D01*
X423368Y411593D01*
X423548Y412500D01*
X423368Y413407D01*
X422855Y414175D01*
X422086Y414688D01*
X421179Y414869D01*
D02*
G37*
G36*
X244051Y411551D02*
X235949D01*
Y403449D01*
X244051D01*
Y411551D01*
D02*
G37*
G36*
X250000Y411586D02*
X248942Y411447D01*
X247957Y411039D01*
X247111Y410389D01*
X246461Y409543D01*
X246053Y408558D01*
X245914Y407500D01*
X246053Y406442D01*
X246461Y405457D01*
X247111Y404611D01*
X247957Y403961D01*
X248942Y403553D01*
X250000Y403414D01*
X251058Y403553D01*
X252043Y403961D01*
X252889Y404611D01*
X253539Y405457D01*
X253947Y406442D01*
X254086Y407500D01*
X253947Y408558D01*
X253539Y409543D01*
X252889Y410389D01*
X252043Y411039D01*
X251058Y411447D01*
X250000Y411586D01*
D02*
G37*
G36*
X420866Y405991D02*
X419930Y405804D01*
X419136Y405274D01*
X418605Y404480D01*
X418419Y403543D01*
X418444Y403414D01*
X418029Y403136D01*
X417866Y403245D01*
X416929Y403432D01*
X415993Y403245D01*
X415199Y402715D01*
X414668Y401921D01*
X414482Y400984D01*
X414668Y400048D01*
X415199Y399254D01*
X415993Y398723D01*
X416209Y398680D01*
Y398170D01*
X415993Y398127D01*
X415199Y397597D01*
X414668Y396803D01*
X414482Y395866D01*
X414668Y394930D01*
X415199Y394136D01*
X415993Y393605D01*
X416929Y393419D01*
X417866Y393605D01*
X418029Y393714D01*
X418444Y393436D01*
X418419Y393307D01*
X418605Y392370D01*
X419136Y391576D01*
X419930Y391046D01*
X420866Y390860D01*
X421803Y391046D01*
X422597Y391576D01*
X423127Y392370D01*
X423314Y393307D01*
X423127Y394244D01*
X422597Y395038D01*
X421803Y395568D01*
X421586Y395611D01*
Y396121D01*
X421803Y396164D01*
X422597Y396695D01*
X423127Y397489D01*
X423314Y398425D01*
X423127Y399362D01*
X422597Y400156D01*
X421803Y400686D01*
X421586Y400729D01*
Y401239D01*
X421803Y401282D01*
X422597Y401813D01*
X423127Y402607D01*
X423314Y403543D01*
X423127Y404480D01*
X422597Y405274D01*
X421803Y405804D01*
X420866Y405991D01*
D02*
G37*
G36*
X421179Y386719D02*
X418820D01*
X417914Y386539D01*
X417145Y386025D01*
X416632Y385257D01*
X416452Y384350D01*
X416632Y383444D01*
X417145Y382675D01*
X417914Y382162D01*
X418820Y381982D01*
X421179D01*
X422086Y382162D01*
X422855Y382675D01*
X423368Y383444D01*
X423548Y384350D01*
X423368Y385257D01*
X422855Y386025D01*
X422086Y386539D01*
X421179Y386719D01*
D02*
G37*
G36*
X420000Y356884D02*
X418865Y356735D01*
X417808Y356297D01*
X416900Y355600D01*
X416203Y354692D01*
X415765Y353635D01*
X415616Y352500D01*
X415765Y351365D01*
X416203Y350308D01*
X416900Y349400D01*
X417808Y348703D01*
X418865Y348265D01*
X420000Y348116D01*
X421135Y348265D01*
X422192Y348703D01*
X423100Y349400D01*
X423797Y350308D01*
X424235Y351365D01*
X424384Y352500D01*
X424235Y353635D01*
X423797Y354692D01*
X423100Y355600D01*
X422192Y356297D01*
X421135Y356735D01*
X420000Y356884D01*
D02*
G37*
G36*
X424346Y346847D02*
X415654D01*
Y338154D01*
X424346D01*
Y346847D01*
D02*
G37*
%LPD*%
D28*
X420000Y342500D02*
D03*
D29*
Y352500D02*
D03*
D30*
X250000Y407500D02*
D03*
D31*
X240000D02*
D03*
D32*
X420866Y393307D02*
D03*
Y398425D02*
D03*
Y403543D02*
D03*
X416929Y400984D02*
D03*
Y395866D02*
D03*
D33*
X420000Y384350D02*
D03*
Y412500D02*
D03*
M02*
