G04*
G04 #@! TF.GenerationSoftware,Altium Limited,Altium Designer,20.0.2 (26)*
G04*
G04 Layer_Color=32768*
%FSLAX25Y25*%
%MOIN*%
G70*
G01*
G75*
%ADD11C,0.00787*%
%ADD34C,0.00394*%
%ADD35C,0.00197*%
D11*
X287736Y404252D02*
Y410748D01*
Y404252D02*
X299941D01*
Y410748D01*
X287736D02*
X299941D01*
X337677Y417638D02*
Y422362D01*
Y417638D02*
X347323D01*
Y422362D01*
X337677D02*
X347323D01*
X255138Y362638D02*
X259862D01*
Y372087D01*
X255138D02*
X259862D01*
X255138Y362638D02*
Y372087D01*
X387638Y384724D02*
X392362D01*
X387638Y375276D02*
Y384724D01*
Y375276D02*
X392362D01*
Y384724D01*
X347638Y320413D02*
X352362D01*
Y329862D01*
X347638D02*
X352362D01*
X347638Y320413D02*
Y329862D01*
D34*
X347913Y371378D02*
Y375315D01*
X345945Y373346D02*
X349882D01*
X420000Y345532D02*
Y349469D01*
X418032Y347500D02*
X421969D01*
D35*
X256900Y407500D02*
G03*
X256900Y407500I-11900J0D01*
G01*
X339646Y366260D02*
X356181D01*
X339646Y380433D02*
X356181D01*
Y366260D02*
Y380433D01*
X339646Y366260D02*
Y380433D01*
X408189Y337107D02*
Y357894D01*
X431811Y337107D02*
Y357894D01*
X408189Y337107D02*
X431811D01*
X408189Y357894D02*
X431811D01*
X420000Y396457D02*
Y400394D01*
X418032Y398425D02*
X421969D01*
M02*
